{
  "accessors": [
    {
      "bufferView": 2,
      "componentType": 5126,
      "count": 14,
      "max": [
        0.80901801586151123,
        -2.2863750457763672,
        0.80901700258255005
      ],
      "min": [
        -0.78838300704956055,
        -4.2622981071472168,
        0
      ],
      "type": "VEC3"
    },
    {
      "bufferView": 2,
      "byteOffset": 168,
      "componentType": 5126,
      "count": 14,
      "max": [
        0,
        1,
        1
      ],
      "min": [
        0,
        0,
        0
      ],
      "type": "VEC3"
    },
    {
      "bufferView": 1,
      "componentType": 5126,
      "count": 14,
      "max": [
        0.65625,
        0.15625
      ],
      "min": [
        0.34375,
        0.029841000214219093
      ],
      "type": "VEC2"
    },
    {
      "bufferView": 0,
      "componentType": 5125,
      "count": 18,
      "max": [
        13
      ],
      "min": [
        0
      ],
      "type": "SCALAR"
    },
    {
      "bufferView": 2,
      "byteOffset": 336,
      "componentType": 5126,
      "count": 84,
      "max": [
        0.54696202278137207,
        -2.3230350017547607,
        0.54696202278137207
      ],
      "min": [
        -0.54696202278137207,
        -4.1465921401977539,
        -0.54696202278137207
      ],
      "type": "VEC3"
    },
    {
      "bufferView": 2,
      "byteOffset": 1344,
      "componentType": 5126,
      "count": 84,
      "max": [
        1,
        1,
        1
      ],
      "min": [
        -1,
        -1,
        -1
      ],
      "type": "VEC3"
    },
    {
      "bufferView": 1,
      "byteOffset": 112,
      "componentType": 5126,
      "count": 84,
      "max": [
        0.65625,
        1
      ],
      "min": [
        0.34375,
        -0
      ],
      "type": "VEC2"
    },
    {
      "bufferView": 0,
      "byteOffset": 72,
      "componentType": 5125,
      "count": 240,
      "max": [
        83
      ],
      "min": [
        0
      ],
      "type": "SCALAR"
    },
    {
      "bufferView": 2,
      "byteOffset": 2352,
      "componentType": 5126,
      "count": 84,
      "max": [
        0.14235599339008331,
        -2.0928969383239746,
        0.14235599339008331
      ],
      "min": [
        -0.14235599339008331,
        -4.0328707695007324,
        -0.14235599339008331
      ],
      "type": "VEC3"
    },
    {
      "bufferView": 2,
      "byteOffset": 3360,
      "componentType": 5126,
      "count": 84,
      "max": [
        1,
        1,
        1
      ],
      "min": [
        -1,
        -1,
        -1
      ],
      "type": "VEC3"
    },
    {
      "bufferView": 1,
      "byteOffset": 784,
      "componentType": 5126,
      "count": 84,
      "max": [
        0.65625,
        1
      ],
      "min": [
        0.34375,
        -0
      ],
      "type": "VEC2"
    },
    {
      "bufferView": 0,
      "byteOffset": 1032,
      "componentType": 5125,
      "count": 240,
      "max": [
        83
      ],
      "min": [
        0
      ],
      "type": "SCALAR"
    },
    {
      "bufferView": 2,
      "byteOffset": 4368,
      "componentType": 5126,
      "count": 4391,
      "max": [
        1.5294450521469116,
        1.6673239469528198,
        1.2356250286102295
      ],
      "min": [
        -1.5347089767456055,
        -6.8318848609924316,
        -1.1258909702301025
      ],
      "type": "VEC3"
    },
    {
      "bufferView": 2,
      "byteOffset": 57060,
      "componentType": 5126,
      "count": 4391,
      "max": [
        1,
        1,
        1
      ],
      "min": [
        -1,
        -1,
        -1
      ],
      "type": "VEC3"
    },
    {
      "bufferView": 1,
      "byteOffset": 1456,
      "componentType": 5126,
      "count": 4391,
      "max": [
        0.875,
        1
      ],
      "min": [
        0.125,
        -0
      ],
      "type": "VEC2"
    },
    {
      "bufferView": 0,
      "byteOffset": 1992,
      "componentType": 5125,
      "count": 10578,
      "max": [
        4390
      ],
      "min": [
        0
      ],
      "type": "SCALAR"
    },
    {
      "bufferView": 2,
      "byteOffset": 109752,
      "componentType": 5126,
      "count": 1182,
      "max": [
        1.5074729919433594,
        -0.43128100037574768,
        1.2226129770278931
      ],
      "min": [
        -1.4825420379638672,
        -5.7575211524963379,
        -1.246364951133728
      ],
      "type": "VEC3"
    },
    {
      "bufferView": 2,
      "byteOffset": 123936,
      "componentType": 5126,
      "count": 1182,
      "max": [
        0.99999076128005981,
        0.9999881386756897,
        0.99923485517501831
      ],
      "min": [
        -0.99999088048934937,
        -0.98860561847686768,
        -0.99921959638595581
      ],
      "type": "VEC3"
    },
    {
      "bufferView": 1,
      "byteOffset": 36584,
      "componentType": 5126,
      "count": 1182,
      "max": [
        1,
        1
      ],
      "min": [
        0,
        0.5
      ],
      "type": "VEC2"
    },
    {
      "bufferView": 0,
      "byteOffset": 44304,
      "componentType": 5125,
      "count": 5202,
      "max": [
        1181
      ],
      "min": [
        0
      ],
      "type": "SCALAR"
    },
    {
      "bufferView": 2,
      "byteOffset": 138120,
      "componentType": 5126,
      "count": 2643,
      "max": [
        1.9184950590133667,
        -0.9136350154876709,
        1.4429010152816772
      ],
      "min": [
        -1.7924710512161255,
        -5.2196230888366699,
        -0.99318099021911621
      ],
      "type": "VEC3"
    },
    {
      "bufferView": 2,
      "byteOffset": 169836,
      "componentType": 5126,
      "count": 2643,
      "max": [
        1,
        0.99129647016525269,
        0.99819236993789673
      ],
      "min": [
        -1,
        -0.96845811605453491,
        -0.99821186065673828
      ],
      "type": "VEC3"
    },
    {
      "bufferView": 1,
      "byteOffset": 46040,
      "componentType": 5126,
      "count": 2643,
      "max": [
        1,
        1
      ],
      "min": [
        0.05000000074505806,
        -0
      ],
      "type": "VEC2"
    },
    {
      "bufferView": 0,
      "byteOffset": 65112,
      "componentType": 5125,
      "count": 11856,
      "max": [
        2642
      ],
      "min": [
        0
      ],
      "type": "SCALAR"
    },
    {
      "bufferView": 2,
      "byteOffset": 201552,
      "componentType": 5126,
      "count": 1924,
      "max": [
        1.4050149917602539,
        1.9056750535964966,
        1.4047529697418213
      ],
      "min": [
        -1.4049639701843262,
        -4.2600111961364746,
        -0.67989200353622437
      ],
      "type": "VEC3"
    },
    {
      "bufferView": 2,
      "byteOffset": 224640,
      "componentType": 5126,
      "count": 1924,
      "max": [
        1,
        1,
        1
      ],
      "min": [
        -1,
        -1,
        -1
      ],
      "type": "VEC3"
    },
    {
      "bufferView": 1,
      "byteOffset": 67184,
      "componentType": 5126,
      "count": 1924,
      "max": [
        0.65625,
        1
      ],
      "min": [
        0.34375,
        -0
      ],
      "type": "VEC2"
    },
    {
      "bufferView": 0,
      "byteOffset": 112536,
      "componentType": 5125,
      "count": 6708,
      "max": [
        1923
      ],
      "min": [
        0
      ],
      "type": "SCALAR"
    },
    {
      "bufferView": 2,
      "byteOffset": 247728,
      "componentType": 5126,
      "count": 82,
      "max": [
        0.49542400240898132,
        -6.0632920265197754,
        0.49542400240898132
      ],
      "min": [
        -0.49542400240898132,
        -6.0864810943603516,
        -0.49542298913002014
      ],
      "type": "VEC3"
    },
    {
      "bufferView": 2,
      "byteOffset": 248712,
      "componentType": 5126,
      "count": 82,
      "max": [
        1,
        1,
        1
      ],
      "min": [
        -1,
        -1,
        -1
      ],
      "type": "VEC3"
    },
    {
      "bufferView": 1,
      "byteOffset": 82576,
      "componentType": 5126,
      "count": 82,
      "max": [
        0.65625,
        1
      ],
      "min": [
        0.34375,
        0.6875
      ],
      "type": "VEC2"
    },
    {
      "bufferView": 0,
      "byteOffset": 139368,
      "componentType": 5125,
      "count": 240,
      "max": [
        81
      ],
      "min": [
        0
      ],
      "type": "SCALAR"
    }
  ],
  "asset": {
    "extras": {
      "author": "ibbqcats (https://sketchfab.com/ibbqcats)",
      "license": "CC-BY-4.0 (http://creativecommons.org/licenses/by/4.0/)",
      "source": "https://sketchfab.com/3d-models/portal-gun-eaf9910ab1e14d498c7d224932fd76bb",
      "title": "Portal Gun"
    },
    "generator": "Sketchfab-8.4.0",
    "version": "2.0"
  },
  "bufferViews": [
    {
      "buffer": 0,
      "byteLength": 140328,
      "byteOffset": 0,
      "name": "floatBufferViews",
      "target": 34963
    },
    {
      "buffer": 0,
      "byteLength": 83232,
      "byteOffset": 140328,
      "byteStride": 8,
      "name": "floatBufferViews",
      "target": 34962
    },
    {
      "buffer": 0,
      "byteLength": 249696,
      "byteOffset": 223560,
      "byteStride": 12,
      "name": "floatBufferViews",
      "target": 34962
    }
  ],
  "buffers": [
    {
      "byteLength": 473256,
      "uri": "scene.bin"
    }
  ],
  "materials": [
    {
      "alphaMode": "BLEND",
      "doubleSided": true,
      "name": "aiStandardSurface2SG",
      "pbrMetallicRoughness": {
        "baseColorFactor": [
          1,
          1,
          1,
          0.25037291555693653
        ],
        "metallicFactor": 0.64431230949633045,
        "roughnessFactor": 0.11326344807942712
      }
    },
    {
      "doubleSided": true,
      "emissiveFactor": [
        0,
        1,
        1
      ],
      "name": "aiStandardSurface3SG",
      "pbrMetallicRoughness": {
        "baseColorFactor": [
          0,
          0.80838606968446114,
          1,
          1
        ],
        "metallicFactor": 0.056433521617542615,
        "roughnessFactor": 0.59999999999999998
      }
    },
    {
      "doubleSided": true,
      "name": "aiStandardSurface4SG",
      "pbrMetallicRoughness": {
        "baseColorFactor": [
          0,
          0,
          0,
          1
        ],
        "metallicFactor": 0.45643352161754264,
        "roughnessFactor": 0
      }
    },
    {
      "doubleSided": true,
      "name": "aiStandardSurface5SG",
      "pbrMetallicRoughness": {
        "baseColorFactor": [
          0.82245343098341372,
          0.77367414997183637,
          0.77367414997183637,
          1
        ],
        "metallicFactor": 0,
        "roughnessFactor": 0.50720284201882104
      }
    },
    {
      "doubleSided": true,
      "name": "aiStandardSurface6SG",
      "pbrMetallicRoughness": {
        "baseColorFactor": [
          1,
          0.72311394489333691,
          0.0038248954846579197,
          1
        ],
        "metallicFactor": 0,
        "roughnessFactor": 0
      }
    },
    {
      "doubleSided": true,
      "name": "aiStandardSurface7SG",
      "pbrMetallicRoughness": {
        "baseColorFactor": [
          1,
          1,
          1,
          1
        ],
        "metallicFactor": 0,
        "roughnessFactor": 0.59999999999999998
      }
    },
    {
      "doubleSided": true,
      "emissiveFactor": [
        0.80210817682404734,
        0.51427358764337117,
        0.0086157712997269962
      ],
      "name": "surfaceShader1SG",
      "pbrMetallicRoughness": {
        "baseColorFactor": [
          1,
          0.52829369742176924,
          0,
          1
        ],
        "metallicFactor": 0,
        "roughnessFactor": 0.12538466020063921
      }
    }
  ],
  "meshes": [
    {
      "primitives": [
        {
          "attributes": {
            "NORMAL": 1,
            "POSITION": 0,
            "TEXCOORD_0": 2
          },
          "indices": 3,
          "material": 2,
          "mode": 4
        }
      ]
    },
    {
      "primitives": [
        {
          "attributes": {
            "NORMAL": 5,
            "POSITION": 4,
            "TEXCOORD_0": 6
          },
          "indices": 7,
          "material": 0,
          "mode": 4
        }
      ]
    },
    {
      "primitives": [
        {
          "attributes": {
            "NORMAL": 9,
            "POSITION": 8,
            "TEXCOORD_0": 10
          },
          "indices": 11,
          "material": 1,
          "mode": 4
        }
      ]
    },
    {
      "primitives": [
        {
          "attributes": {
            "NORMAL": 13,
            "POSITION": 12,
            "TEXCOORD_0": 14
          },
          "indices": 15,
          "material": 2,
          "mode": 4
        }
      ]
    },
    {
      "primitives": [
        {
          "attributes": {
            "NORMAL": 17,
            "POSITION": 16,
            "TEXCOORD_0": 18
          },
          "indices": 19,
          "material": 3,
          "mode": 4
        }
      ]
    },
    {
      "primitives": [
        {
          "attributes": {
            "NORMAL": 21,
            "POSITION": 20,
            "TEXCOORD_0": 22
          },
          "indices": 23,
          "material": 4,
          "mode": 4
        }
      ]
    },
    {
      "primitives": [
        {
          "attributes": {
            "NORMAL": 25,
            "POSITION": 24,
            "TEXCOORD_0": 26
          },
          "indices": 27,
          "material": 5,
          "mode": 4
        }
      ]
    },
    {
      "primitives": [
        {
          "attributes": {
            "NORMAL": 29,
            "POSITION": 28,
            "TEXCOORD_0": 30
          },
          "indices": 31,
          "material": 6,
          "mode": 4
        }
      ]
    }
  ],
  "nodes": [
    {
      "children": [
        1
      ],
      "name": "RootNode (gltf orientation matrix)",
      "rotation": [
        -0.70710678118654746,
        -0,
        -0,
        0.70710678118654757
      ]
    },
    {
      "children": [
        2
      ],
      "name": "RootNode (model correction matrix)"
    },
    {
      "children": [
        3,
        4,
        5,
        6,
        7,
        8,
        9,
        10,
        11
      ],
      "name": "Portal Gun.obj.cleaner.materialmerger.gles"
    },
    {
      "mesh": 0,
      "name": ""
    },
    {
      "name": ""
    },
    {
      "mesh": 1,
      "name": ""
    },
    {
      "mesh": 2,
      "name": ""
    },
    {
      "mesh": 3,
      "name": ""
    },
    {
      "mesh": 4,
      "name": ""
    },
    {
      "mesh": 5,
      "name": ""
    },
    {
      "mesh": 6,
      "name": ""
    },
    {
      "mesh": 7,
      "name": ""
    }
  ],
  "scene": 0,
  "scenes": [
    {
      "name": "OSG_Scene",
      "nodes": [
        0
      ]
    }
  ]
}

